<svg width="71" height="71" viewBox="0 0 71 71" fill="none" xmlns="http://www.w3.org/2000/svg">
<path d="M69.1666 52.8099V63.0599C69.1705 64.0115 68.9756 64.9534 68.5944 65.8252C68.2132 66.6971 67.6541 67.4797 66.9529 68.123C66.2517 68.7663 65.4239 69.256 64.5225 69.5609C63.6211 69.8657 62.666 69.9789 61.7183 69.8933C51.2047 68.7509 41.1056 65.1583 32.2325 59.4041C23.9772 54.1584 16.9782 47.1594 11.7325 38.9041C5.95823 29.9907 2.36481 19.8425 1.24331 9.28161C1.15793 8.33679 1.27021 7.38454 1.57302 6.48549C1.87582 5.58645 2.36251 4.7603 3.00209 4.05965C3.64168 3.359 4.42014 2.7992 5.28793 2.41589C6.15571 2.03259 7.09381 1.83417 8.04248 1.83328H18.2925C19.9506 1.81696 21.5581 2.40413 22.8153 3.48535C24.0726 4.56657 24.8937 6.06805 25.1258 7.70994C25.5584 10.9902 26.3608 14.2109 27.5175 17.3108C27.9772 18.5337 28.0767 19.8627 27.8042 21.1405C27.5317 22.4182 26.8986 23.591 25.98 24.5199L21.6408 28.8591C26.5046 37.4129 33.587 44.4953 42.1408 49.3591L46.48 45.0199C47.4089 44.1013 48.5818 43.4683 49.8595 43.1958C51.1372 42.9233 52.4662 43.0228 53.6891 43.4824C56.789 44.6392 60.0098 45.4415 63.29 45.8741C64.9497 46.1083 66.4654 46.9442 67.549 48.2231C68.6325 49.5019 69.2082 51.1343 69.1666 52.8099Z" stroke="#017A6F" stroke-width="2" stroke-linecap="round" stroke-linejoin="round"/>
</svg>
