<svg width="96" height="96" viewBox="0 0 96 96" fill="none" xmlns="http://www.w3.org/2000/svg">
<path d="M24 8L12 24V80C12 82.1217 12.8429 84.1566 14.3431 85.6569C15.8434 87.1571 17.8783 88 20 88H76C78.1217 88 80.1566 87.1571 81.6569 85.6569C83.1571 84.1566 84 82.1217 84 80V24L72 8H24Z" stroke="#017A6F" stroke-width="2" stroke-linecap="round" stroke-linejoin="round"/>
<path d="M12 24H84" stroke="#017A6F" stroke-width="2" stroke-linecap="round" stroke-linejoin="round"/>
<path d="M64 40C64 44.2435 62.3143 48.3131 59.3137 51.3137C56.3131 54.3143 52.2435 56 48 56C43.7565 56 39.6869 54.3143 36.6863 51.3137C33.6857 48.3131 32 44.2435 32 40" stroke="#017A6F" stroke-width="2" stroke-linecap="round" stroke-linejoin="round"/>
</svg>
